<?xml version="1.0" encoding="utf-8"?>
<!-- Generator: Adobe Illustrator 22.0.0, SVG Export Plug-In . SVG Version: 6.00 Build 0)  -->
<svg version="1.1" id="Layer_1" xmlns="http://www.w3.org/2000/svg" xmlns:xlink="http://www.w3.org/1999/xlink" x="0px" y="0px"
	 viewBox="0 0 264.3 279.9" style="enable-background:new 0 0 264.3 279.9;" xml:space="preserve">
<path d="M7.2,164.3l108.3,108.4l0,0l0,0l0,0c1.2,1.2,2.4,1.8,3.6,3c0.6,0.6,1.2,0.6,1.8,1.2c0.6,0.6,1.8,0.6,2.4,1.2
	c0.6,0.6,1.8,0.6,2.4,0.6s1.2,0.6,2.4,0.6c1.2,0,3,0.6,4.2,0.6c0,0,0,0,0.6,0l0,0c1.2,0,3,0,4.2-0.6c0.6,0,1.2-0.6,1.8-0.6
	c0.6,0,1.8-0.6,2.4-0.6c0.6-0.6,1.8-0.6,2.4-1.2c0.6-0.6,1.2-0.6,1.8-1.2c1.2-0.6,2.4-1.8,3.6-3c0,0,0,0,0.6,0l107.5-108.4
	c9.5-9.5,9.5-24.4,0-33.9c-4.8-4.8-10.7-7.1-16.7-7.1s-11.9,2.4-16.7,7.1l-67.9,67.9V23.8c0-13.1-10.7-23.8-23.8-23.8
	s-23.8,10.7-23.8,23.8v174.5l-67.9-67.9c-4.8-4.8-10.7-7.1-16.7-7.1s-11.9,2.4-16.7,7.1C-2.3,139.9-2.3,154.8,7.2,164.3z"/>
</svg>
